<?xml version="1.0" encoding="utf-8"?>
<!-- Generator: Adobe Illustrator 21.0.0, SVG Export Plug-In . SVG Version: 6.00 Build 0)  -->
<svg version="1.1" id="Layer_1" xmlns="http://www.w3.org/2000/svg" xmlns:xlink="http://www.w3.org/1999/xlink" x="0px" y="0px"
	 viewBox="0 0 100 100" style="enable-background:new 0 0 100 100;" xml:space="preserve">
<style type="text/css">
	.st0{opacity:0.2;}
	.st1{fill:none;stroke:#231F20;stroke-width:0.1;stroke-miterlimit:10;}
	.st2{fill:#BE1E2D;}
	.st3{fill:none;stroke:#BE1E2D;stroke-width:2;stroke-miterlimit:10;}
	.st4{fill:none;stroke:#BE1E2D;stroke-width:2;stroke-linecap:round;stroke-miterlimit:10;}
	.st5{fill:none;stroke:#BE1E2D;stroke-width:2;stroke-linejoin:round;stroke-miterlimit:10;}
	.st6{fill:none;stroke:#BE1E2D;stroke-width:2;stroke-linecap:round;stroke-linejoin:round;stroke-miterlimit:10;}
	.st7{fill:#333333;}
	.st8{fill:none;stroke:#333333;stroke-width:2;stroke-linecap:round;stroke-miterlimit:10;}
	.st9{fill:none;stroke:#333333;stroke-width:2;stroke-miterlimit:10;}
	.st10{fill:#FFFFFF;}
	.st11{fill:none;stroke:#231F20;stroke-width:2;stroke-miterlimit:10;}
	.st12{fill:none;stroke:#333333;stroke-width:2;stroke-linecap:round;stroke-linejoin:round;stroke-miterlimit:10;}
	.st13{fill:#FFFFFF;stroke:#333333;stroke-width:2;stroke-linecap:round;stroke-miterlimit:10;}
	.st14{fill:none;stroke:#000000;stroke-width:2;stroke-linecap:round;stroke-miterlimit:10;}
	.st15{fill:none;}
	.st16{fill:#414042;}
</style>
<g>
	<g>
		<g>
			<path class="st16" d="M67.1,53.2H56.6c-0.3,0-0.5-0.2-0.5-0.5s0.2-0.5,0.5-0.5h10.5c0.3,0,0.5,0.2,0.5,0.5S67.4,53.2,67.1,53.2z"
				/>
			<path class="st16" d="M67.1,64.7c-0.1,0-0.1,0-0.2,0c-8.6-3.5-8.3-11.9-8.3-11.9c0-0.3,0.2-0.5,0.5-0.5c0.3,0,0.5,0.2,0.5,0.5
				c0,0.3-0.3,7.8,7.6,11c0.3,0.1,0.4,0.4,0.3,0.7C67.5,64.6,67.3,64.7,67.1,64.7z"/>
			<path class="st16" d="M56.6,64.7c-0.2,0-0.4-0.1-0.5-0.3c-0.1-0.3,0-0.5,0.3-0.7c7.9-3.2,7.7-10.6,7.6-11c0-0.3,0.2-0.5,0.5-0.5
				c0.3,0,0.5,0.2,0.5,0.5c0,0.1,0.3,8.5-8.3,11.9C56.7,64.7,56.6,64.7,56.6,64.7z"/>
			<path class="st16" d="M61.8,53.2c-0.3,0-0.5-0.2-0.5-0.5v-2.5c0-0.3,0.2-0.5,0.5-0.5s0.5,0.2,0.5,0.5v2.5
				C62.3,53,62.1,53.2,61.8,53.2z"/>
		</g>
		<path class="st16" d="M19.9,59.4c-0.1,0-0.1,0-0.2,0c-0.2-0.1-0.3-0.3-0.3-0.5V36.1c0-9.1,7.4-16.6,16.6-16.6h7
			c9.1,0,16.6,7.4,16.6,16.6c0,9.1-7.4,16.6-16.6,16.6h-15l-7.7,6.6C20.1,59.4,20,59.4,19.9,59.4z M36,20.5c-8.6,0-15.6,7-15.6,15.6
			v21.7l7-6c0.1-0.1,0.2-0.1,0.3-0.1h15.2c8.6,0,15.6-7,15.6-15.6c0-8.6-7-15.6-15.6-15.6H36z"/>
		<g>
			<path class="st16" d="M44.1,43.6c-0.2,0-0.4-0.1-0.5-0.3l-4.2-12.6l-4.2,12.6c-0.1,0.3-0.4,0.4-0.6,0.3c-0.3-0.1-0.4-0.4-0.3-0.6
				l4.7-14c0.1-0.4,0.8-0.4,0.9,0l4.7,14c0.1,0.3-0.1,0.5-0.3,0.6C44.2,43.6,44.2,43.6,44.1,43.6z"/>
			<path class="st16" d="M42.4,38.4h-5.9c-0.3,0-0.5-0.2-0.5-0.5s0.2-0.5,0.5-0.5h5.9c0.3,0,0.5,0.2,0.5,0.5S42.7,38.4,42.4,38.4z"
				/>
		</g>
		<path class="st16" d="M80.1,80.5c-0.1,0-0.2,0-0.3-0.1l-7.7-6.6h-15c-9.1,0-16.6-7.4-16.6-16.6c0-8.7,6.8-16,15.6-16.5
			c0.3,0,0.5,0.2,0.5,0.5s-0.2,0.5-0.5,0.5c-8.2,0.5-14.6,7.3-14.6,15.5c0,8.6,7,15.6,15.6,15.6h15.2c0.1,0,0.2,0,0.3,0.1l7,6V57.2
			c0-8.6-7-15.6-15.6-15.6h-5.8c-0.3,0-0.5-0.2-0.5-0.5s0.2-0.5,0.5-0.5H64c9.1,0,16.6,7.4,16.6,16.6V80c0,0.2-0.1,0.4-0.3,0.5
			C80.3,80.5,80.2,80.5,80.1,80.5z"/>
		<path class="st16" d="M61.3,41.1c-2.2,8.1-9.6,14-18.4,14h-1.8l0.7-3h1.1c7.1,0,13.1-4.6,15.3-11L61.3,41.1z"/>
		<path class="st16" d="M27.7,52.6h-3.9c-0.3,0-0.5-0.2-0.5-0.5s0.2-0.5,0.5-0.5h3.9c0.3,0,0.5,0.2,0.5,0.5S28,52.6,27.7,52.6z"/>
		<path class="st16" d="M75.2,73.7h-2.9c-0.3,0-0.5-0.2-0.5-0.5s0.2-0.5,0.5-0.5h2.9c0.3,0,0.5,0.2,0.5,0.5S75.5,73.7,75.2,73.7z"/>
		<g>
			<path class="st16" d="M72.1,37.5c-0.1,0-0.3,0-0.4-0.1c-0.2-0.2-0.2-0.5,0-0.7c2.3-2.3,2.3-6,0-8.3c-1.1-1.1-2.6-1.7-4.2-1.7
				c-1.6,0-3.1,0.6-4.2,1.7c-0.2,0.2-0.5,0.2-0.7,0c-0.2-0.2-0.2-0.5,0-0.7c1.3-1.3,3-2,4.9-2c1.8,0,3.6,0.7,4.9,2
				c2.7,2.7,2.7,7.1,0,9.7C72.4,37.5,72.3,37.5,72.1,37.5z"/>
			<path class="st16" d="M72.1,37.5c-0.3,0-0.5-0.2-0.5-0.5l-0.2-1.9c0-0.3,0.2-0.5,0.4-0.5c0.3,0,0.5,0.2,0.5,0.4l0.1,1.4l1.4-0.1
				c0.3,0,0.5,0.2,0.5,0.4c0,0.3-0.2,0.5-0.4,0.5L72.1,37.5C72.2,37.5,72.1,37.5,72.1,37.5z"/>
		</g>
		<g>
			<path class="st16" d="M35.9,73.1c-1.8,0-3.5-0.7-4.9-2c-2.7-2.7-2.7-7.1,0-9.7c0.2-0.2,0.5-0.2,0.7,0s0.2,0.5,0,0.7
				c-2.3,2.3-2.3,6,0,8.3c2.3,2.3,6,2.3,8.3,0c0.2-0.2,0.5-0.2,0.7,0s0.2,0.5,0,0.7C39.4,72.5,37.6,73.1,35.9,73.1z"/>
			<path class="st16" d="M31.6,64.1c-0.3,0-0.5-0.2-0.5-0.5l-0.1-1.4l-1.4,0.1c-0.3,0-0.5-0.2-0.5-0.4c0-0.3,0.2-0.5,0.4-0.5
				l1.9-0.2c0.3,0,0.5,0.2,0.5,0.4l0.2,1.9C32.1,63.9,31.9,64.1,31.6,64.1C31.6,64.1,31.6,64.1,31.6,64.1z"/>
		</g>
		<path class="st16" d="M50,90.5C27.7,90.5,9.5,72.3,9.5,50S27.7,9.5,50,9.5S90.5,27.7,90.5,50c0,9.8-3.6,19.3-10,26.7L79.7,76
			c6.3-7.2,9.8-16.4,9.8-26c0-21.8-17.7-39.5-39.5-39.5S10.5,28.2,10.5,50S28.2,89.5,50,89.5c10.5,0,20.4-4.1,27.9-11.5l0.7,0.7
			C70.9,86.3,60.8,90.5,50,90.5z"/>
	</g>
</g>
</svg>
