<?xml version="1.0" encoding="utf-8"?>
<!-- Generator: Adobe Illustrator 21.0.0, SVG Export Plug-In . SVG Version: 6.00 Build 0)  -->
<svg version="1.1" id="Layer_1" xmlns="http://www.w3.org/2000/svg" xmlns:xlink="http://www.w3.org/1999/xlink" x="0px" y="0px"
	 viewBox="0 0 100 100" style="enable-background:new 0 0 100 100;" xml:space="preserve">
<style type="text/css">
	.st0{opacity:0.2;}
	.st1{fill:none;stroke:#231F20;stroke-width:0.1;stroke-miterlimit:10;}
	.st2{fill:#BE1E2D;}
	.st3{fill:none;stroke:#BE1E2D;stroke-width:2;stroke-miterlimit:10;}
	.st4{fill:none;stroke:#BE1E2D;stroke-width:2;stroke-linecap:round;stroke-miterlimit:10;}
	.st5{fill:none;stroke:#BE1E2D;stroke-width:2;stroke-linejoin:round;stroke-miterlimit:10;}
	.st6{fill:none;stroke:#BE1E2D;stroke-width:2;stroke-linecap:round;stroke-linejoin:round;stroke-miterlimit:10;}
	.st7{fill:#333333;}
	.st8{fill:none;stroke:#333333;stroke-width:2;stroke-linecap:round;stroke-miterlimit:10;}
	.st9{fill:none;stroke:#333333;stroke-width:2;stroke-miterlimit:10;}
	.st10{fill:#FFFFFF;}
	.st11{fill:none;stroke:#231F20;stroke-width:2;stroke-miterlimit:10;}
	.st12{fill:none;stroke:#333333;stroke-width:2;stroke-linecap:round;stroke-linejoin:round;stroke-miterlimit:10;}
	.st13{fill:#FFFFFF;stroke:#333333;stroke-width:2;stroke-linecap:round;stroke-miterlimit:10;}
	.st14{fill:none;stroke:#000000;stroke-width:2;stroke-linecap:round;stroke-miterlimit:10;}
	.st15{fill:none;}
	.st16{fill:#414042;}
</style>
<g>
	<g>
		<g>
			<g>
				<g>
					<path class="st16" d="M64.4,26.8h-4.5c-0.3,0-0.5-0.2-0.5-0.5s0.2-0.5,0.5-0.5h4.5c0.3,0,0.5,0.2,0.5,0.5S64.7,26.8,64.4,26.8z
						"/>
					<path class="st16" d="M56.5,26.8H54c-0.3,0-0.5-0.2-0.5-0.5s0.2-0.5,0.5-0.5h2.5c0.3,0,0.5,0.2,0.5,0.5S56.8,26.8,56.5,26.8z"
						/>
					<path class="st16" d="M50.6,26.8h-0.8c-0.3,0-0.5-0.2-0.5-0.5s0.2-0.5,0.5-0.5h0.8c0.3,0,0.5,0.2,0.5,0.5S50.9,26.8,50.6,26.8z
						"/>
					<path class="st16" d="M46.4,26.8h-9.3c-0.3,0-0.5-0.2-0.5-0.5s0.2-0.5,0.5-0.5h9.3c0.3,0,0.5,0.2,0.5,0.5S46.7,26.8,46.4,26.8z
						"/>
					<path class="st16" d="M33.8,26.8h-1.3c-0.3,0-0.5-0.2-0.5-0.5s0.2-0.5,0.5-0.5h1.3c0.3,0,0.5,0.2,0.5,0.5S34,26.8,33.8,26.8z"
						/>
					<path class="st16" d="M39.8,30.5h-7.3c-0.3,0-0.5-0.2-0.5-0.5s0.2-0.5,0.5-0.5h7.3c0.3,0,0.5,0.2,0.5,0.5S40.1,30.5,39.8,30.5z
						"/>
					<path class="st16" d="M46.4,30.5h-3.3c-0.3,0-0.5-0.2-0.5-0.5s0.2-0.5,0.5-0.5h3.3c0.3,0,0.5,0.2,0.5,0.5S46.7,30.5,46.4,30.5z
						"/>
					<path class="st16" d="M49.8,30.5c-0.1,0-0.2,0-0.3-0.1c-0.1-0.1-0.2-0.2-0.2-0.4s0-0.3,0.1-0.4c0.2-0.2,0.5-0.2,0.7,0
						c0.1,0.1,0.1,0.2,0.1,0.4c0,0.1,0,0.3-0.1,0.3C50,30.5,49.9,30.5,49.8,30.5z"/>
					<path class="st16" d="M59.9,30.5h-6.7c-0.3,0-0.5-0.2-0.5-0.5s0.2-0.5,0.5-0.5h6.7c0.3,0,0.5,0.2,0.5,0.5S60.1,30.5,59.9,30.5z
						"/>
					<path class="st16" d="M64.4,30.5h-1.2c-0.3,0-0.5-0.2-0.5-0.5s0.2-0.5,0.5-0.5h1.2c0.3,0,0.5,0.2,0.5,0.5S64.7,30.5,64.4,30.5z
						"/>
				</g>
				<path class="st16" d="M22.5,43.6c-0.1,0-0.1,0-0.2,0c-0.2-0.1-0.3-0.3-0.3-0.5V28.2c0-5.2,4.2-9.4,9.4-9.4h34.2
					c5.2,0,9.4,4.2,9.4,9.4s-4.2,9.4-9.4,9.4H29.4l-6.5,5.9C22.7,43.5,22.6,43.6,22.5,43.6z M31.4,19.8c-4.6,0-8.4,3.8-8.4,8.4V42
					l5.8-5.2c0.1-0.1,0.2-0.1,0.3-0.1h36.4c4.6,0,8.4-3.8,8.4-8.4s-3.8-8.4-8.4-8.4H31.4z"/>
				<path class="st16" d="M29.2,37.6h-1.7c-0.3,0-0.5-0.2-0.5-0.5s0.2-0.5,0.5-0.5h1.7c0.3,0,0.5,0.2,0.5,0.5S29.4,37.6,29.2,37.6z"
					/>
			</g>
			<g>
				<g>
					<path class="st16" d="M39.1,48.7h-1.6c-0.3,0-0.5-0.2-0.5-0.5s0.2-0.5,0.5-0.5h1.6c0.3,0,0.5,0.2,0.5,0.5S39.4,48.7,39.1,48.7z
						"/>
					<path class="st16" d="M48.9,48.7h-6.4c-0.3,0-0.5-0.2-0.5-0.5s0.2-0.5,0.5-0.5h6.4c0.3,0,0.5,0.2,0.5,0.5S49.2,48.7,48.9,48.7z
						"/>
					<path class="st16" d="M59.8,48.7h-7.5c-0.3,0-0.5-0.2-0.5-0.5s0.2-0.5,0.5-0.5h7.5c0.3,0,0.5,0.2,0.5,0.5S60,48.7,59.8,48.7z"
						/>
					<path class="st16" d="M63.1,48.7c-0.1,0-0.2,0-0.3-0.1c-0.1-0.1-0.2-0.2-0.2-0.4c0-0.1,0.1-0.3,0.1-0.4c0.2-0.2,0.5-0.2,0.7,0
						c0.1,0.1,0.1,0.2,0.1,0.4c0,0.1-0.1,0.2-0.1,0.3C63.4,48.6,63.3,48.7,63.1,48.7z"/>
					<path class="st16" d="M69.5,48.7h-3c-0.3,0-0.5-0.2-0.5-0.5s0.2-0.5,0.5-0.5h3c0.3,0,0.5,0.2,0.5,0.5S69.8,48.7,69.5,48.7z"/>
					<path class="st16" d="M43.2,52.3h-5.7c-0.3,0-0.5-0.2-0.5-0.5s0.2-0.5,0.5-0.5h5.7c0.3,0,0.5,0.2,0.5,0.5S43.5,52.3,43.2,52.3z
						"/>
					<path class="st16" d="M47.5,52.3h-0.9c-0.3,0-0.5-0.2-0.5-0.5s0.2-0.5,0.5-0.5h0.9c0.3,0,0.5,0.2,0.5,0.5S47.8,52.3,47.5,52.3z
						"/>
					<path class="st16" d="M56.9,52.3h-6.1c-0.3,0-0.5-0.2-0.5-0.5s0.2-0.5,0.5-0.5h6.1c0.3,0,0.5,0.2,0.5,0.5S57.2,52.3,56.9,52.3z
						"/>
					<path class="st16" d="M66.1,52.3h-5.8c-0.3,0-0.5-0.2-0.5-0.5s0.2-0.5,0.5-0.5h5.8c0.3,0,0.5,0.2,0.5,0.5S66.4,52.3,66.1,52.3z
						"/>
					<path class="st16" d="M69.5,52.3c-0.1,0-0.3,0-0.4-0.1C69.1,52.1,69,52,69,51.8c0-0.1,0-0.3,0.1-0.3c0.2-0.2,0.5-0.2,0.7,0
						c0.1,0.1,0.1,0.2,0.1,0.3c0,0.1-0.1,0.2-0.1,0.4C69.8,52.3,69.6,52.3,69.5,52.3z"/>
				</g>
				<path class="st16" d="M79.5,65.4c-0.1,0-0.2,0-0.3-0.1l-6.5-5.9H36.4c-5.2,0-9.4-4.2-9.4-9.4s4.2-9.4,9.4-9.4h34.2
					c5.2,0,9.4,4.2,9.4,9.4v14.9c0,0.2-0.1,0.4-0.3,0.5C79.6,65.4,79.6,65.4,79.5,65.4z M36.4,41.6c-4.6,0-8.4,3.8-8.4,8.4
					s3.8,8.4,8.4,8.4h36.4c0.1,0,0.2,0,0.3,0.1l5.8,5.2V50c0-4.6-3.8-8.4-8.4-8.4H36.4z"/>
				<path class="st16" d="M75.2,59.4h-2.4c-0.3,0-0.5-0.2-0.5-0.5s0.2-0.5,0.5-0.5h2.4c0.3,0,0.5,0.2,0.5,0.5S75.5,59.4,75.2,59.4z"
					/>
			</g>
			<g>
				<g>
					<path class="st16" d="M64.4,74.2h-4.5c-0.3,0-0.5-0.2-0.5-0.5s0.2-0.5,0.5-0.5h4.5c0.3,0,0.5,0.2,0.5,0.5S64.7,74.2,64.4,74.2z
						"/>
					<path class="st16" d="M56.5,74.2H54c-0.3,0-0.5-0.2-0.5-0.5s0.2-0.5,0.5-0.5h2.5c0.3,0,0.5,0.2,0.5,0.5S56.8,74.2,56.5,74.2z"
						/>
					<path class="st16" d="M50.6,74.2h-0.8c-0.3,0-0.5-0.2-0.5-0.5s0.2-0.5,0.5-0.5h0.8c0.3,0,0.5,0.2,0.5,0.5S50.9,74.2,50.6,74.2z
						"/>
					<path class="st16" d="M46.4,74.2h-9.3c-0.3,0-0.5-0.2-0.5-0.5s0.2-0.5,0.5-0.5h9.3c0.3,0,0.5,0.2,0.5,0.5S46.7,74.2,46.4,74.2z
						"/>
					<path class="st16" d="M33.8,74.2h-1.3c-0.3,0-0.5-0.2-0.5-0.5s0.2-0.5,0.5-0.5h1.3c0.3,0,0.5,0.2,0.5,0.5S34,74.2,33.8,74.2z"
						/>
					<path class="st16" d="M39.8,70.5h-7.3c-0.3,0-0.5-0.2-0.5-0.5s0.2-0.5,0.5-0.5h7.3c0.3,0,0.5,0.2,0.5,0.5S40.1,70.5,39.8,70.5z
						"/>
					<path class="st16" d="M46.4,70.5h-3.3c-0.3,0-0.5-0.2-0.5-0.5s0.2-0.5,0.5-0.5h3.3c0.3,0,0.5,0.2,0.5,0.5S46.7,70.5,46.4,70.5z
						"/>
					<path class="st16" d="M49.8,70.5c-0.1,0-0.3-0.1-0.3-0.2c-0.1-0.1-0.2-0.2-0.2-0.3c0-0.1,0.1-0.3,0.2-0.4
						c0.2-0.2,0.5-0.2,0.7,0c0.1,0.1,0.1,0.2,0.1,0.4c0,0.1,0,0.2-0.1,0.3C50,70.4,49.9,70.5,49.8,70.5z"/>
					<path class="st16" d="M59.9,70.5h-6.7c-0.3,0-0.5-0.2-0.5-0.5s0.2-0.5,0.5-0.5h6.7c0.3,0,0.5,0.2,0.5,0.5S60.1,70.5,59.9,70.5z
						"/>
					<path class="st16" d="M64.4,70.5h-1.2c-0.3,0-0.5-0.2-0.5-0.5s0.2-0.5,0.5-0.5h1.2c0.3,0,0.5,0.2,0.5,0.5S64.7,70.5,64.4,70.5z
						"/>
				</g>
				<path class="st16" d="M22.5,87.2c-0.1,0-0.1,0-0.2,0c-0.2-0.1-0.3-0.3-0.3-0.5V71.8c0-5.2,4.2-9.4,9.4-9.4h34.2
					c5.2,0,9.4,4.2,9.4,9.4c0,5.2-4.2,9.4-9.4,9.4H29.4l-6.5,5.9C22.7,87.2,22.6,87.2,22.5,87.2z M31.4,63.4c-4.6,0-8.4,3.8-8.4,8.4
					v13.8l5.8-5.2c0.1-0.1,0.2-0.1,0.3-0.1h36.4c4.6,0,8.4-3.8,8.4-8.4s-3.8-8.4-8.4-8.4H31.4z"/>
				<path class="st16" d="M29.2,81.2h-2.7c-0.3,0-0.5-0.2-0.5-0.5s0.2-0.5,0.5-0.5h2.7c0.3,0,0.5,0.2,0.5,0.5S29.4,81.2,29.2,81.2z"
					/>
			</g>
		</g>
		<path class="st16" d="M56.9,41.6c-0.2,0-0.3-0.1-0.4-0.2l-2.4-4c-0.1-0.2-0.1-0.5,0.2-0.7c0.2-0.1,0.5-0.1,0.7,0.2l2.4,4
			c0.1,0.2,0.1,0.5-0.2,0.7C57.1,41.6,57,41.6,56.9,41.6z"/>
		<path class="st16" d="M46.6,63.4c-0.1,0-0.2,0-0.3-0.1c-0.2-0.1-0.3-0.5-0.2-0.7l2.4-4c0.1-0.2,0.5-0.3,0.7-0.2
			c0.2,0.1,0.3,0.5,0.2,0.7l-2.4,4C46.9,63.3,46.7,63.4,46.6,63.4z"/>
		<path class="st16" d="M38.1,19.8c-0.1,0-0.3,0-0.4-0.1c-0.2-0.2-0.2-0.5,0-0.7l9-9c0.2-0.2,0.5-0.2,0.7,0s0.2,0.5,0,0.7l-9,9
			C38.4,19.7,38.2,19.8,38.1,19.8z"/>
		<path class="st16" d="M61.1,88.8c-0.1,0-0.3,0-0.4-0.1l-7.6-7.6c-0.2-0.2-0.2-0.5,0-0.7s0.5-0.2,0.7,0l7.6,7.6
			c0.2,0.2,0.2,0.5,0,0.7C61.3,88.8,61.2,88.8,61.1,88.8z"/>
		<g>
			<circle class="st10" cx="38.1" cy="19.3" r="1"/>
			<path class="st16" d="M38.1,20.8c-0.8,0-1.5-0.7-1.5-1.5s0.7-1.5,1.5-1.5s1.5,0.7,1.5,1.5S38.9,20.8,38.1,20.8z M38.1,18.8
				c-0.3,0-0.5,0.2-0.5,0.5s0.2,0.5,0.5,0.5s0.5-0.2,0.5-0.5S38.4,18.8,38.1,18.8z"/>
		</g>
		<g>
			<circle class="st10" cx="54.5" cy="37.1" r="1"/>
			<path class="st16" d="M54.5,38.6c-0.8,0-1.5-0.7-1.5-1.5s0.7-1.5,1.5-1.5s1.5,0.7,1.5,1.5S55.3,38.6,54.5,38.6z M54.5,36.6
				c-0.3,0-0.5,0.2-0.5,0.5s0.2,0.5,0.5,0.5s0.5-0.2,0.5-0.5S54.8,36.6,54.5,36.6z"/>
		</g>
		<g>
			<circle class="st10" cx="56.9" cy="41.1" r="1"/>
			<path class="st16" d="M56.9,42.6c-0.8,0-1.5-0.7-1.5-1.5s0.7-1.5,1.5-1.5s1.5,0.7,1.5,1.5S57.8,42.6,56.9,42.6z M56.9,40.6
				c-0.3,0-0.5,0.2-0.5,0.5s0.2,0.5,0.5,0.5s0.5-0.2,0.5-0.5S57.2,40.6,56.9,40.6z"/>
		</g>
		<g>
			<circle class="st10" cx="49" cy="58.9" r="1"/>
			<path class="st16" d="M49,60.4c-0.8,0-1.5-0.7-1.5-1.5s0.7-1.5,1.5-1.5s1.5,0.7,1.5,1.5S49.8,60.4,49,60.4z M49,58.4
				c-0.3,0-0.5,0.2-0.5,0.5s0.2,0.5,0.5,0.5s0.5-0.2,0.5-0.5S49.3,58.4,49,58.4z"/>
		</g>
		<g>
			<circle class="st10" cx="46.6" cy="62.9" r="1"/>
			<path class="st16" d="M46.6,64.4c-0.8,0-1.5-0.7-1.5-1.5s0.7-1.5,1.5-1.5s1.5,0.7,1.5,1.5S47.4,64.4,46.6,64.4z M46.6,62.4
				c-0.3,0-0.5,0.2-0.5,0.5s0.2,0.5,0.5,0.5s0.5-0.2,0.5-0.5S46.8,62.4,46.6,62.4z"/>
		</g>
		<g>
			<circle class="st10" cx="53.5" cy="80.7" r="1"/>
			<path class="st16" d="M53.5,82.2c-0.8,0-1.5-0.7-1.5-1.5s0.7-1.5,1.5-1.5s1.5,0.7,1.5,1.5S54.3,82.2,53.5,82.2z M53.5,80.2
				c-0.3,0-0.5,0.2-0.5,0.5s0.2,0.5,0.5,0.5S54,81,54,80.7S53.8,80.2,53.5,80.2z"/>
		</g>
		<path class="st16" d="M50,90.5c-8.4,0-16.5-2.6-23.3-7.4c-0.2-0.2-0.3-0.5-0.1-0.7c0.2-0.2,0.5-0.3,0.7-0.1
			c6.7,4.7,14.5,7.2,22.7,7.2c21.8,0,39.5-17.7,39.5-39.5S71.8,10.5,50,10.5S10.5,28.2,10.5,50c0,11,4.4,21.1,12.3,28.7
			c0.2,0.2,0.2,0.5,0,0.7c-0.2,0.2-0.5,0.2-0.7,0C14,71.7,9.5,61.2,9.5,50C9.5,27.7,27.7,9.5,50,9.5S90.5,27.7,90.5,50
			S72.3,90.5,50,90.5z"/>
	</g>
</g>
</svg>
