<?xml version="1.0" encoding="utf-8"?>
<!-- Generator: Adobe Illustrator 21.0.0, SVG Export Plug-In . SVG Version: 6.00 Build 0)  -->
<svg version="1.1" id="Layer_1" xmlns="http://www.w3.org/2000/svg" xmlns:xlink="http://www.w3.org/1999/xlink" x="0px" y="0px"
	 viewBox="0 0 100 100" style="enable-background:new 0 0 100 100;" xml:space="preserve">
<style type="text/css">
	.st0{opacity:0.2;}
	.st1{fill:none;stroke:#231F20;stroke-width:0.1;stroke-miterlimit:10;}
	.st2{fill:#BE1E2D;}
	.st3{fill:none;stroke:#BE1E2D;stroke-width:2;stroke-miterlimit:10;}
	.st4{fill:none;stroke:#BE1E2D;stroke-width:2;stroke-linecap:round;stroke-miterlimit:10;}
	.st5{fill:none;stroke:#BE1E2D;stroke-width:2;stroke-linejoin:round;stroke-miterlimit:10;}
	.st6{fill:none;stroke:#BE1E2D;stroke-width:2;stroke-linecap:round;stroke-linejoin:round;stroke-miterlimit:10;}
	.st7{fill:#333333;}
	.st8{fill:none;stroke:#333333;stroke-width:2;stroke-linecap:round;stroke-miterlimit:10;}
	.st9{fill:none;stroke:#333333;stroke-width:2;stroke-miterlimit:10;}
	.st10{fill:#FFFFFF;}
	.st11{fill:none;stroke:#231F20;stroke-width:2;stroke-miterlimit:10;}
	.st12{fill:none;stroke:#333333;stroke-width:2;stroke-linecap:round;stroke-linejoin:round;stroke-miterlimit:10;}
	.st13{fill:#FFFFFF;stroke:#333333;stroke-width:2;stroke-linecap:round;stroke-miterlimit:10;}
	.st14{fill:none;stroke:#000000;stroke-width:2;stroke-linecap:round;stroke-miterlimit:10;}
	.st15{fill:none;}
	.st16{fill:#414042;}
</style>
<g>
	<g>
		<g>
			<path class="st16" d="M84.5,80.6h-49c-0.2,0-0.4-0.1-0.5-0.3l-20-54c-0.1-0.3,0-0.5,0.3-0.6c0.3-0.1,0.5,0,0.6,0.3l19.9,53.7
				h47.9L64,26.3c-0.1-0.3,0-0.5,0.3-0.6c0.3-0.1,0.5,0,0.6,0.3l20,54c0.1,0.2,0,0.3-0.1,0.5C84.8,80.5,84.7,80.6,84.5,80.6z"/>
			<path class="st16" d="M84.5,82.6h-48c-0.3,0-0.5-0.2-0.5-0.5s0.2-0.5,0.5-0.5h48c0.3,0,0.5,0.2,0.5,0.5S84.8,82.6,84.5,82.6z"/>
			<path class="st16" d="M84.5,84.6h-47c-0.3,0-0.5-0.2-0.5-0.5s0.2-0.5,0.5-0.5h47c0.3,0,0.5,0.2,0.5,0.5S84.8,84.6,84.5,84.6z"/>
			<path class="st16" d="M84.5,86.6h-49c-0.3,0-0.5-0.2-0.5-0.5s0.2-0.5,0.5-0.5h49c0.3,0,0.5,0.2,0.5,0.5S84.8,86.6,84.5,86.6z"/>
			<path class="st16" d="M35.5,80.6c-0.2,0-0.4-0.1-0.5-0.3l-20-54c-0.1-0.2,0-0.3,0.1-0.5c0.1-0.1,0.2-0.2,0.4-0.2
				c12.8,0,31.3-4.2,40.7-12.1c0.1-0.1,0.3-0.1,0.4-0.1c0.2,0,0.3,0.2,0.3,0.3l20,54c0.1,0.2,0,0.4-0.1,0.6
				C67.3,76.3,48.4,80.6,35.5,80.6z M16.2,26.6l19.6,53c12.6-0.1,30.7-4.2,40.1-11.9l-19.6-53C46.8,22.3,28.9,26.5,16.2,26.6z"/>
			<path class="st16" d="M35.5,86.6c-0.2,0-0.4-0.1-0.5-0.3L14.5,30.9c-0.1-0.3,0-0.5,0.3-0.6c0.3-0.1,0.5,0,0.6,0.3L36,85.9
				c0.1,0.3,0,0.5-0.3,0.6C35.6,86.6,35.6,86.6,35.5,86.6z"/>
			<path class="st16" d="M22,33.3c-0.3,0-0.5-0.2-0.5-0.5c0-0.3,0.2-0.5,0.5-0.5c10.4-1,25.3-4.4,33.7-9.8c0.2-0.1,0.5-0.1,0.7,0.2
				c0.1,0.2,0.1,0.5-0.2,0.7C47.6,28.8,32.9,32.3,22,33.3C22,33.3,22,33.3,22,33.3z"/>
			<path class="st16" d="M61.4,38.4c-0.2,0-0.4-0.1-0.5-0.3l-5.5-14.9c-0.1-0.3,0-0.5,0.3-0.6c0.3-0.1,0.5,0,0.6,0.3l5.5,14.9
				c0.1,0.3,0,0.5-0.3,0.6C61.5,38.4,61.4,38.4,61.4,38.4z"/>
			<path class="st16" d="M27.6,48.4c-0.3,0-0.5-0.2-0.5-0.5c0-0.3,0.2-0.5,0.4-0.5c10.7-1.1,25.3-4.6,33.6-10
				c0.2-0.2,0.5-0.1,0.7,0.1c0.2,0.2,0.1,0.5-0.1,0.7C53.2,43.8,38.5,47.3,27.6,48.4C27.6,48.4,27.6,48.4,27.6,48.4z"/>
			<path class="st16" d="M27.6,48.4c-0.2,0-0.4-0.1-0.5-0.3L21.5,33c-0.1-0.3,0-0.5,0.3-0.6c0.3-0.1,0.5,0,0.6,0.3L28,47.8
				c0.1,0.3,0,0.5-0.3,0.6C27.7,48.4,27.6,48.4,27.6,48.4z"/>
			<path class="st16" d="M29.4,53.3c-0.2,0-0.5-0.2-0.5-0.4c0-0.3,0.2-0.5,0.4-0.6c10.7-1.3,25.3-4.9,33.6-10
				c0.2-0.1,0.5-0.1,0.7,0.2c0.1,0.2,0.1,0.5-0.2,0.7C54.4,48.7,39.5,52.1,29.4,53.3C29.4,53.3,29.4,53.3,29.4,53.3z"/>
			<path class="st16" d="M31.2,58.1c-0.2,0-0.5-0.2-0.5-0.4c0-0.3,0.2-0.5,0.4-0.6c10-1.3,24.7-4.7,33.6-10.1
				c0.2-0.1,0.5-0.1,0.7,0.2c0.1,0.2,0.1,0.5-0.2,0.7C56.2,53.3,41.3,56.7,31.2,58.1C31.2,58.1,31.2,58.1,31.2,58.1z"/>
			<path class="st16" d="M31.9,60c-0.2,0-0.5-0.2-0.5-0.4c0-0.3,0.2-0.5,0.4-0.6c10-1.4,24.8-4.8,33.6-10.1c0.2-0.1,0.5-0.1,0.7,0.2
				c0.1,0.2,0.1,0.5-0.2,0.7C56.9,55.1,42,58.6,31.9,60C31.9,60,31.9,60,31.9,60z"/>
			<path class="st16" d="M32.6,61.9c-0.2,0-0.5-0.2-0.5-0.4c0-0.3,0.2-0.5,0.4-0.6C43,59.4,57.3,56,66.1,50.8
				c0.2-0.1,0.5-0.1,0.7,0.2c0.1,0.2,0.1,0.5-0.2,0.7C57.7,56.9,43.2,60.4,32.6,61.9C32.6,61.9,32.6,61.9,32.6,61.9z"/>
			<path class="st16" d="M33.3,63.8c-0.2,0-0.5-0.2-0.5-0.4c0-0.3,0.1-0.5,0.4-0.6c10.5-1.6,24.8-5,33.6-10.1
				c0.2-0.1,0.5-0.1,0.7,0.2c0.1,0.2,0.1,0.5-0.2,0.7C58.4,58.8,43.9,62.3,33.3,63.8C33.3,63.8,33.3,63.8,33.3,63.8z"/>
			<g>
				<path class="st16" d="M31.4,47.9c-0.2,0-0.3-0.1-0.4-0.2c-0.2-0.2-0.1-0.5,0.1-0.7c1.1-0.7,1.9-2.7,2.8-4.6
					c1.1-2.7,2.3-5.4,4.5-6c2-0.6,4.3,0.9,6.4,2.2c1.3,0.9,2.7,1.8,3.4,1.6c0.3-0.1,0.5,0.1,0.6,0.3c0.1,0.3-0.1,0.5-0.3,0.6
					c-1.1,0.3-2.6-0.6-4.2-1.7c-1.8-1.2-3.9-2.6-5.6-2.1c-1.7,0.5-2.8,3-3.8,5.5c-0.9,2.1-1.8,4.2-3.1,5.1
					C31.6,47.9,31.5,47.9,31.4,47.9z"/>
				<path class="st16" d="M57.1,40.7c-1.5,0-3.1-1.2-4.7-2.4c-1.5-1.1-3-2.2-3.9-2c-0.6,0.2-0.9,0.9-1.2,1.7
					c-0.3,0.9-0.7,1.8-1.7,2.1C45.3,40.2,45,40,45,39.8c-0.1-0.3,0.1-0.5,0.3-0.6c0.5-0.1,0.8-0.8,1.1-1.5c0.4-0.9,0.8-1.9,1.9-2.3
					c1.3-0.4,3,0.8,4.7,2.1c1.5,1.1,3.1,2.3,4.2,2.2c0.3,0,0.5,0.2,0.5,0.5c0,0.3-0.2,0.5-0.5,0.5C57.2,40.7,57.2,40.7,57.1,40.7z"
					/>
				<path class="st16" d="M44.1,35.7c-1.2,0-2.3-0.7-2.7-1.7c-0.2-0.6-0.2-1.3,0.1-1.9c0.3-0.6,0.9-1.1,1.6-1.3
					c1.4-0.4,3,0.3,3.5,1.6c0.2,0.6,0.2,1.3-0.1,1.9c-0.3,0.6-0.9,1.1-1.6,1.3C44.6,35.6,44.3,35.7,44.1,35.7z M43.9,31.7
					c-0.2,0-0.4,0-0.5,0.1c-0.5,0.1-0.8,0.4-1,0.8c-0.2,0.3-0.2,0.7,0,1c0.3,0.8,1.4,1.3,2.3,1c0.5-0.1,0.8-0.4,1-0.8
					c0.2-0.3,0.2-0.7,0-1C45.4,32.2,44.6,31.7,43.9,31.7z"/>
			</g>
			<path class="st16" d="M34,65.8c-0.2,0-0.5-0.2-0.5-0.4c0-0.3,0.1-0.5,0.4-0.6c9.7-1.5,19.8-4.1,27.1-7c0.3-0.1,0.5,0,0.7,0.3
				c0.1,0.3,0,0.5-0.3,0.7C50.8,62.9,38.8,65,34,65.8C34,65.8,34,65.8,34,65.8z"/>
			<path class="st16" d="M64.5,26.6H61c-0.3,0-0.5-0.2-0.5-0.5s0.2-0.5,0.5-0.5h3.5c0.3,0,0.5,0.2,0.5,0.5S64.8,26.6,64.5,26.6z"/>
			<path class="st16" d="M59,26.6h-2c-0.3,0-0.5-0.2-0.5-0.5s0.2-0.5,0.5-0.5h2c0.3,0,0.5,0.2,0.5,0.5S59.3,26.6,59,26.6z"/>
			<path class="st16" d="M55,26.6h-5.2c-0.3,0-0.5-0.2-0.5-0.5s0.2-0.5,0.5-0.5H55c0.3,0,0.5,0.2,0.5,0.5S55.3,26.6,55,26.6z"/>
			<path class="st16" d="M44.8,26.6H15.5c-0.3,0-0.5-0.2-0.5-0.5s0.2-0.5,0.5-0.5h29.3c0.3,0,0.5,0.2,0.5,0.5S45.1,26.6,44.8,26.6z"
				/>
			<path class="st16" d="M35.7,40.4c1.2-2.1,3-1.1,2.2,1.7c-0.7,2.5,1,4.1,2.9,3.6c0,0-6.5,1.3-8.6,1.6v-0.6L35.7,40.4z"/>
			<path class="st16" d="M47.2,37.9c0.5-1.1,1.5-0.5,1.1,0.8c-0.3,1-0.4,1.3,0,2c0,0-1.6,0-2.5-0.8C44.9,39.1,47.2,37.9,47.2,37.9z"
				/>
			<path class="st16" d="M75.5,68.6l3.2,8.5c0,0-16.2,3-34.7,3C44,80.1,68.1,75.5,75.5,68.6z"/>
		</g>
		<path class="st16" d="M82.6,74.1l-0.8-0.6c5.1-6.8,7.7-15,7.7-23.5c0-21.8-17.7-39.5-39.5-39.5c-12.6,0-24.1,5.8-31.7,15.9
			l-0.8-0.6C25.3,15.4,37.1,9.5,50,9.5c22.3,0,40.5,18.2,40.5,40.5C90.5,58.8,87.8,67.1,82.6,74.1z"/>
		<path class="st16" d="M50,90.5C27.7,90.5,9.5,72.3,9.5,50c0-7.8,2.2-15.4,6.4-21.9l0.8,0.5C12.7,35,10.5,42.4,10.5,50
			c0,21.8,17.7,39.5,39.5,39.5c5.9,0,11.6-1.3,16.8-3.8l0.4,0.9C61.8,89.2,56,90.5,50,90.5z"/>
	</g>
</g>
</svg>
