<?xml version="1.0" encoding="utf-8"?>
<!-- Generator: Adobe Illustrator 23.0.1, SVG Export Plug-In . SVG Version: 6.00 Build 0)  -->
<svg version="1.1" id="Layer_1" xmlns="http://www.w3.org/2000/svg" xmlns:xlink="http://www.w3.org/1999/xlink" x="0px" y="0px"
	 viewBox="0 0 66 66" style="enable-background:new 0 0 66 66;" xml:space="preserve">
<style type="text/css">
	.st0{fill:none;stroke:#FFFFFF;stroke-miterlimit:10;}
</style>
<g>
	<path class="st0" d="M18.9,20.7c6.8,0,12.3,5.5,12.3,12.3s-5.5,12.3-12.3,12.3"/>
	<path class="st0" d="M18.9,26c3.9,0,7,3.1,7,7s-3.1,7-7,7"/>
	<path class="st0" d="M18.9,31.2c1,0,1.8,0.8,1.8,1.8s-0.8,1.8-1.8,1.8"/>
	<polyline class="st0" points="47.1,15 44,18 47.1,21 44,24 47.1,27 44,30 47.1,33 44,36 47.1,39 44,42 47.1,45 44,48 47.1,51 	"/>
	<path class="st0" d="M18.9,15.4c9.7,0,17.6,7.9,17.6,17.6s-7.9,17.6-17.6,17.6"/>
</g>
</svg>
