<?xml version="1.0" encoding="utf-8"?>
<!-- Generator: Adobe Illustrator 23.0.1, SVG Export Plug-In . SVG Version: 6.00 Build 0)  -->
<svg version="1.1" id="Layer_1" xmlns="http://www.w3.org/2000/svg" xmlns:xlink="http://www.w3.org/1999/xlink" x="0px" y="0px"
	 viewBox="0 0 364.1 136.4" style="enable-background:new 0 0 364.1 136.4;" xml:space="preserve">
<style type="text/css">
	.st0{fill:#3D3E45;}
	.st1{fill:#AE926E;}
	.st2{fill:#949498;}
</style>
<g>
	<path class="st0" d="M46.5,63.1h-18v32.1h-6.3V63.1h-18v-5.6h42.3V63.1z"/>
	<path class="st0" d="M90.5,95.2h-6.8l-4.3-8.4H53.9l-4.3,8.4h-6.8l20-37.7h7.9L90.5,95.2z M76.3,81.2l-9.6-18.3L57,81.2H76.3z"/>
	<path class="st0" d="M131.9,95.2H96.5V57.5h6.2v32.1h29.1V95.2z"/>
	<path class="st0" d="M190.3,95.2h-6.3V64.4h-0.1L164.3,89l-19.4-24.6h-0.2v30.8h-6.2V57.5h7.8l18.1,22.8l18.2-22.8h7.8V95.2z"/>
	<path class="st0" d="M243.6,95.2h-6.8l-4.3-8.4H207l-4.3,8.4h-6.8l20-37.7h7.9L243.6,95.2z M229.4,81.2l-9.6-18.3l-9.7,18.3H229.4z
		"/>
	<path class="st0" d="M293.1,95.2h-7.3l-10.2-14.4h-19v14.4h-6.3V57.5H280c4,0,7.1,1.1,9.3,3.2c2.3,2.1,3.4,5,3.4,8.7
		c0,3.2-0.9,5.8-2.8,7.7c-1.7,1.8-4,2.9-7,3.4L293.1,95.2z M279.1,75.2c4.8,0,7.2-1.9,7.2-5.8c0-4.2-2.6-6.3-7.8-6.3h-22v12.1H279.1
		z"/>
	<path class="st0" d="M346.6,95.2h-8l-18.1-19.8l-11.4,8.4v11.4h-6.2V57.5h6.2V77l26.4-19.5h9l-19.3,14.3L346.6,95.2z"/>
	<g>
		<rect x="162.3" y="2.6" class="st1" width="6.1" height="37.7"/>
		<rect x="174.1" y="15.9" class="st1" width="6.1" height="11"/>
		<rect x="150.5" y="15.9" class="st1" width="6.1" height="11"/>
	</g>
	<g>
		<path class="st2" d="M358.2,64.6c-1.1,1.1-2.4,1.6-3.9,1.6c-1.5,0-2.8-0.5-3.9-1.6c-1.1-1.1-1.6-2.4-1.6-3.9
			c0-1.5,0.5-2.8,1.6-3.9c1.1-1.1,2.3-1.6,3.8-1.6c1.5,0,2.8,0.5,3.9,1.6c1.1,1.1,1.6,2.3,1.6,3.9C359.8,62.3,359.3,63.6,358.2,64.6
			z M351,57.4c-0.9,0.9-1.4,2-1.4,3.3c0,1.3,0.5,2.4,1.4,3.4c0.9,0.9,2,1.4,3.3,1.4c1.3,0,2.4-0.5,3.3-1.4c0.9-0.9,1.4-2,1.4-3.4
			c0-1.3-0.5-2.4-1.4-3.3c-0.9-0.9-2-1.4-3.3-1.4C353.1,56.1,352,56.5,351,57.4z M354.3,57.7c0.7,0,1.3,0.1,1.6,0.2
			c0.6,0.3,0.9,0.8,0.9,1.5c0,0.5-0.2,0.9-0.6,1.2c-0.2,0.1-0.5,0.2-0.9,0.3c0.5,0.1,0.8,0.3,1,0.6c0.2,0.3,0.3,0.6,0.3,0.9v0.4
			c0,0.1,0,0.3,0,0.4c0,0.2,0,0.3,0.1,0.3l0,0.1h-1c0,0,0,0,0-0.1c0,0,0,0,0-0.1l0-0.2v-0.5c0-0.7-0.2-1.1-0.6-1.4
			c-0.2-0.1-0.6-0.2-1.2-0.2h-0.8v2.4h-1.1v-6H354.3z M355.4,58.7c-0.3-0.1-0.7-0.2-1.3-0.2h-0.9v2.2h1c0.4,0,0.8,0,1-0.1
			c0.4-0.2,0.6-0.5,0.6-0.9C355.8,59.1,355.7,58.8,355.4,58.7z"/>
	</g>
	<g>
		<path class="st2" d="M13.7,109.5c4.1,0,5.5,3.2,5.5,3.2h0.1c0,0-0.1-0.6-0.1-1.3v-8.3h2.3v23.7h-2.2V125c0-0.7,0.1-1.2,0.1-1.2
			h-0.1c0,0-1.4,3.4-5.8,3.4c-4.6,0-7.4-3.6-7.4-8.9C6.1,113,9.3,109.5,13.7,109.5z M13.8,125.2c2.8,0,5.5-2,5.5-6.8
			c0-3.4-1.8-6.8-5.4-6.8c-3,0-5.5,2.5-5.5,6.8C8.5,122.5,10.6,125.2,13.8,125.2z"/>
		<path class="st2" d="M26.7,103.1h2.4v2.9h-2.4V103.1z M26.8,109.9h2.3v17h-2.3V109.9z"/>
		<path class="st2" d="M40.2,131.9c3.3,0,5.9-1.6,5.9-5.3V125c0-0.6,0.1-1.2,0.1-1.2h-0.1c-1,1.9-2.7,3-5.4,3
			c-4.6,0-7.6-3.6-7.6-8.7c0-5.1,2.8-8.6,7.4-8.6c4.5,0,5.6,2.8,5.6,2.8h0.1c0,0,0-0.2,0-0.6v-1.9h2.2v16.6c0,5.4-4,7.5-8.1,7.5
			c-2,0-3.9-0.5-5.6-1.3l0.9-1.9C35.6,130.7,37.7,131.9,40.2,131.9z M46.2,118c0-5-2.4-6.5-5.4-6.5c-3.3,0-5.2,2.4-5.2,6.4
			s2.2,6.7,5.6,6.7C43.8,124.7,46.2,123,46.2,118z"/>
		<path class="st2" d="M53.7,103.1h2.4v2.9h-2.4V103.1z M53.7,109.9H56v17h-2.3V109.9z"/>
		<path class="st2" d="M61.9,112h-2.2v-1.9H62v-4.9h2.3v4.9h4.3v1.9h-4.3v8.4c0,4,2.5,4.5,3.8,4.5c0.5,0,0.8-0.1,0.8-0.1v2.1
			c0,0-0.4,0.1-1,0.1c-2,0-5.9-0.6-5.9-6.3V112z"/>
		<path class="st2" d="M81.3,116.3h0.9v-0.4c0-3.3-1.8-4.4-4.2-4.4c-2.8,0-4.8,1.6-4.8,1.6l-1.1-1.8c0,0,2.2-1.9,6-1.9
			c4.1,0,6.3,2.3,6.3,6.5v10.9h-2.2V125c0-0.8,0.1-1.4,0.1-1.4h-0.1c0,0-1.4,3.7-5.7,3.7c-2.8,0-5.8-1.7-5.8-5
			C70.9,116.5,78.4,116.3,81.3,116.3z M77.1,125.3c3.2,0,5.2-3.4,5.2-6.3v-0.7h-1c-2.7,0-8,0.1-8,3.8
			C73.3,123.7,74.6,125.3,77.1,125.3z"/>
		<path class="st2" d="M89.4,103.1h2.3v19.2c0,2.2,1,2.6,1.9,2.6c0.3,0,0.6,0,0.6,0v2.1c0,0-0.4,0.1-0.8,0.1c-1.4,0-3.9-0.4-3.9-4.2
			V103.1z"/>
		<path class="st2" d="M107.1,112h-2.2v-1.9h2.3v-4.9h2.3v4.9h4.3v1.9h-4.3v8.4c0,4,2.5,4.5,3.8,4.5c0.5,0,0.8-0.1,0.8-0.1v2.1
			c0,0-0.4,0.1-1,0.1c-2,0-5.9-0.6-5.9-6.3V112z"/>
		<path class="st2" d="M126.5,116.3h0.9v-0.4c0-3.3-1.8-4.4-4.2-4.4c-2.8,0-4.8,1.6-4.8,1.6l-1.1-1.8c0,0,2.2-1.9,6-1.9
			c4.1,0,6.3,2.3,6.3,6.5v10.9h-2.2V125c0-0.8,0.1-1.4,0.1-1.4h-0.1c0,0-1.4,3.7-5.7,3.7c-2.8,0-5.8-1.7-5.8-5
			C116.1,116.5,123.6,116.3,126.5,116.3z M122.3,125.3c3.2,0,5.2-3.4,5.2-6.3v-0.7h-1c-2.7,0-8,0.1-8,3.8
			C118.5,123.7,119.7,125.3,122.3,125.3z"/>
		<path class="st2" d="M134.6,103.1h2.3v19.2c0,2.2,1,2.6,1.9,2.6c0.3,0,0.6,0,0.6,0v2.1c0,0-0.4,0.1-0.8,0.1
			c-1.4,0-3.9-0.4-3.9-4.2V103.1z"/>
		<path class="st2" d="M150,109.5c4.7,0,7.1,3.6,7.1,7.8c0,0.4-0.1,1.2-0.1,1.2h-13c0.1,4.4,3.1,6.7,6.6,6.7c3.1,0,5.2-2.1,5.2-2.1
			l1,1.8c0,0-2.5,2.4-6.3,2.4c-5.1,0-8.9-3.6-8.9-8.9C141.7,112.8,145.4,109.5,150,109.5z M154.8,116.6c-0.1-3.5-2.3-5.2-4.8-5.2
			c-2.8,0-5.3,1.8-5.8,5.2H154.8z"/>
		<path class="st2" d="M161.2,109.9h2.3v2.5c0,0.7-0.1,1.3-0.1,1.3h0.1c0.6-1.6,2.8-4.3,6.8-4.3c4.2,0,5.7,2.4,5.7,6.6v10.8h-2.3
			v-10.2c0-2.7-0.4-5-3.7-5c-2.9,0-5.4,2-6.2,4.8c-0.2,0.7-0.3,1.5-0.3,2.3v8.1h-2.3V109.9z"/>
		<path class="st2" d="M181.6,112h-2.2v-1.9h2.3v-4.9h2.3v4.9h4.3v1.9h-4.3v8.4c0,4,2.5,4.5,3.8,4.5c0.5,0,0.8-0.1,0.8-0.1v2.1
			c0,0-0.4,0.1-1,0.1c-2,0-5.9-0.6-5.9-6.3V112z"/>
		<path class="st2" d="M200.8,109.9h2.3v2.5c0,0.7-0.1,1.3-0.1,1.3h0.1c0.8-2.3,3.5-4.3,6.1-4.3c3.1,0,4.8,1.5,5.3,4.3h0.1
			c0.9-2.3,3.4-4.3,6.2-4.3c4.1,0,5.6,2.4,5.6,6.6v10.8h-2.3v-10.2c0-2.8-0.6-5.1-3.7-5.1c-2.6,0-4.7,2.3-5.4,4.8
			c-0.2,0.7-0.3,1.6-0.3,2.5v8h-2.3v-10.2c0-2.6-0.4-5.1-3.6-5.1c-2.8,0-4.9,2.4-5.6,5c-0.2,0.7-0.2,1.5-0.2,2.3v8h-2.3V109.9z"/>
		<path class="st2" d="M240.5,116.3h0.9v-0.4c0-3.3-1.8-4.4-4.2-4.4c-2.8,0-4.8,1.6-4.8,1.6l-1.1-1.8c0,0,2.2-1.9,6-1.9
			c4.1,0,6.3,2.3,6.3,6.5v10.9h-2.2V125c0-0.8,0.1-1.4,0.1-1.4h-0.1c0,0-1.4,3.7-5.7,3.7c-2.8,0-5.8-1.7-5.8-5
			C230.1,116.5,237.5,116.3,240.5,116.3z M236.2,125.3c3.2,0,5.2-3.4,5.2-6.3v-0.7h-1c-2.7,0-8,0.1-8,3.8
			C232.4,123.7,233.7,125.3,236.2,125.3z"/>
		<path class="st2" d="M248.7,109.9h2.3v3c0,0.7-0.1,1.3-0.1,1.3h0.1c0.8-2.6,2.7-4.5,5.4-4.5c0.5,0,0.9,0.1,0.9,0.1v2.3
			c0,0-0.4-0.1-0.8-0.1c-2.4,0-4.2,1.9-4.9,4.4c-0.3,1.1-0.5,2.2-0.5,3.3v7.2h-2.3V109.9z"/>
		<path class="st2" d="M260.5,103.1h2.3v13.2h2.7l5.1-6.5h2.8l-5.9,7.4v0.1l6.5,9.5h-2.7l-5.7-8.5h-2.7v8.5h-2.3V103.1z"/>
		<path class="st2" d="M284.1,109.5c4.7,0,7.1,3.6,7.1,7.8c0,0.4-0.1,1.2-0.1,1.2h-13c0.1,4.4,3.1,6.7,6.6,6.7
			c3.1,0,5.2-2.1,5.2-2.1l1,1.8c0,0-2.5,2.4-6.3,2.4c-5.1,0-8.9-3.6-8.9-8.9C275.7,112.8,279.5,109.5,284.1,109.5z M288.8,116.6
			c-0.1-3.5-2.3-5.2-4.8-5.2c-2.8,0-5.3,1.8-5.8,5.2H288.8z"/>
		<path class="st2" d="M295.9,112h-2.2v-1.9h2.3v-4.9h2.3v4.9h4.3v1.9h-4.3v8.4c0,4,2.5,4.5,3.8,4.5c0.5,0,0.8-0.1,0.8-0.1v2.1
			c0,0-0.4,0.1-1,0.1c-2,0-5.9-0.6-5.9-6.3V112z"/>
		<path class="st2" d="M306.2,103.1h2.4v2.9h-2.4V103.1z M306.3,109.9h2.3v17h-2.3V109.9z"/>
		<path class="st2" d="M313.8,109.9h2.3v2.5c0,0.7-0.1,1.3-0.1,1.3h0.1c0.6-1.6,2.8-4.3,6.8-4.3c4.2,0,5.7,2.4,5.7,6.6v10.8h-2.3
			v-10.2c0-2.7-0.4-5-3.7-5c-2.9,0-5.4,2-6.2,4.8c-0.2,0.7-0.3,1.5-0.3,2.3v8.1h-2.3V109.9z"/>
		<path class="st2" d="M339.5,131.9c3.3,0,5.9-1.6,5.9-5.3V125c0-0.6,0.1-1.2,0.1-1.2h-0.1c-1,1.9-2.7,3-5.4,3
			c-4.6,0-7.6-3.6-7.6-8.7c0-5.1,2.8-8.6,7.4-8.6c4.5,0,5.6,2.8,5.6,2.8h0.1c0,0,0-0.2,0-0.6v-1.9h2.2v16.6c0,5.4-4,7.5-8.1,7.5
			c-2,0-3.9-0.5-5.6-1.3l0.9-1.9C334.9,130.7,337,131.9,339.5,131.9z M345.4,118c0-5-2.4-6.5-5.4-6.5c-3.3,0-5.2,2.4-5.2,6.4
			s2.2,6.7,5.6,6.7C343.1,124.7,345.4,123,345.4,118z"/>
	</g>
</g>
</svg>
