<?xml version="1.0" encoding="utf-8"?>
<!-- Generator: Adobe Illustrator 23.0.0, SVG Export Plug-In . SVG Version: 6.00 Build 0)  -->
<svg version="1.1" id="Layer_1" xmlns="http://www.w3.org/2000/svg" xmlns:xlink="http://www.w3.org/1999/xlink" x="0px" y="0px"
	 viewBox="0 0 214 50" style="enable-background:new 0 0 214 50;" xml:space="preserve">
<style type="text/css">
	.st0{fill:#40CEE3;}
	.st1{fill:#FFBC47;}
	.st2{fill:#F65E5D;}
	.st3{fill:#FFFFFF;}
</style>
<g>
	<g>
		<path class="st0" d="M12.9,9.7c5.1,0,10.8,2.1,10.8,8.3c0,3.8-2.2,6.4-5.2,7.8c3.4,1.4,5.6,4.1,5.6,8.2c0,6.5-5.6,8.9-11.3,8.9
			S1.5,40.4,1.5,34c0-4.1,2.4-6.6,5.9-8C4.1,24.6,2,22.1,2,18.3C1.9,11.8,7.7,9.7,12.9,9.7z M12.8,37.4c2.5,0,4.6-0.8,4.6-4
			c0-3.3-2.3-4.2-4.7-5c-2.4,0.8-4.6,1.8-4.6,5C8.2,36.6,10.3,37.4,12.8,37.4z M12.8,23.3c2.3-0.7,4.2-1.5,4.2-4.5s-1.9-3.6-4.1-3.6
			c-2.3,0-4.2,0.7-4.2,3.7S10.6,22.6,12.8,23.3z"/>
		<path class="st1" d="M45.6,40.1c-1.9,1.8-4.4,2.8-7.9,2.8S31.8,42,30,40.4c-2.4-2.2-3.1-5.1-3.1-9.6c0-4.7,0.8-7.7,3.2-10
			c1.9-1.9,4.4-2.9,8-2.9c3.4,0,5.9,0.9,7.7,2.5c2.4,2.2,3.1,5.2,3.1,9.7C48.8,34.8,48,37.8,45.6,40.1z M40.3,24.9
			C39.9,24.3,39.1,24,38,24c-1.3,0-2.2,0.4-2.6,0.9c-0.8,1-1.2,3.1-1.2,5.7c0,2.7,0.4,4.7,1.1,5.4c0.5,0.5,1.3,0.8,2.4,0.8
			c1.2,0,2-0.4,2.5-1c0.8-1,1.2-3,1.2-5.7C41.5,27.7,41.1,25.8,40.3,24.9z"/>
		<path class="st2" d="M63,9.7c5.1,0,10.8,2.1,10.8,8.3c0,3.8-2.2,6.4-5.2,7.8c3.4,1.4,5.6,4.1,5.6,8.2c0,6.5-5.6,8.9-11.3,8.9
			S51.6,40.4,51.6,34c0-4.1,2.4-6.6,5.9-8c-3.3-1.4-5.4-3.9-5.4-7.7C52.1,11.8,57.9,9.7,63,9.7z M62.9,37.4c2.5,0,4.6-0.8,4.6-4
			c0-3.3-2.3-4.2-4.7-5c-2.4,0.8-4.6,1.8-4.6,5C58.3,36.6,60.4,37.4,62.9,37.4z M62.9,23.3c2.3-0.7,4.2-1.5,4.2-4.5
			s-1.9-3.6-4.1-3.6c-2.3,0-4.2,0.7-4.2,3.7S60.7,22.6,62.9,23.3z"/>
	</g>
	<g>
		<path class="st3" d="M102.2,18c-1.9-1.3-4.7-1.8-6.7-1.8c-2.3,0-3.7,0.6-3.7,3.1c0,4.8,14.6,2,14.6,13.5c0,3.7-1.7,6.3-4,7.8
			c-2.2,1.5-5.2,2.2-8.3,2.2c-3.4,0-7.9-0.8-10.5-3.2l3.7-5.5c2.1,1.7,5.2,2.4,7.6,2.4c2.2,0,4-0.6,4-3.3c0-5.5-14.6-2.4-14.6-13.7
			c0-3.4,1.5-5.5,3.6-7.1c2.3-1.7,5.1-2.5,8.3-2.5c3,0,7.1,0.7,9.6,2.8L102.2,18z"/>
		<path class="st3" d="M123.8,41.9c-1.5,0.4-3.2,0.6-4.9,0.6c-6.5,0-8.3-3.2-8.3-9v-8.1h-3.4v-6.3h3.4v-6.5l7.2-0.6v7.1h5.8v6.3
			h-5.8V33c0,2.4,0,3.2,2.6,3.2c0.9,0,2.1-0.1,3-0.3L123.8,41.9z"/>
		<path class="st3" d="M141.2,42.2v-3.6c-1.5,2.7-3.7,4.2-6.9,4.2c-4.5,0-6.7-3-6.7-8.3V18.7h7.2v14.7c0,1.7,0.4,2.9,1.8,2.9
			c2,0,4.1-2.5,4.1-7.9v-9.6h7.2v23.5h-6.7V42.2z"/>
		<path class="st3" d="M173.4,6.9v35.3h-6.8l-0.1-3.1c-1.6,2.4-4.1,3.7-6.9,3.7c-2.2,0-4-0.8-5.3-2.3c-1.8-2-2.8-5.1-2.8-9.9
			c0-4.5,0.8-7.9,3.1-10.1c1.5-1.5,3.6-2.4,6.5-2.4c1.9,0,3.6,0.4,4.9,1.7V6.9H173.4z M164.5,34.9c1.2-1.6,1.9-3.6,1.9-6
			c0-1.7-0.4-2.9-1.2-3.7c-0.6-0.6-1.6-1-2.7-1c-2.8,0-3.3,2-3.3,6.4c0,4.5,0.6,6.1,2.4,6.1C162.7,36.6,163.7,36,164.5,34.9z"/>
		<path class="st3" d="M181.7,6.9c2.4,0,4.2,1.8,4.2,4.3s-1.8,4.3-4.2,4.3s-4.2-1.8-4.2-4.3S179.3,6.9,181.7,6.9z M185.3,19v23.5
			h-7.2V19H185.3z"/>
		<path class="st3" d="M210.4,35.2c0.3-1.4,0.5-3,0.5-5c0-4.5-0.7-7.5-3.1-9.7c-1.8-1.7-4.3-2.5-7.7-2.5c-3.6,0-6,1-8,2.9
			c-2.4,2.3-3.2,5.2-3.2,10c0,4.5,0.7,7.4,3.1,9.6c0.8,0.7,1.7,1.2,2.7,1.6L210.4,35.2z M197.6,25c0.4-0.5,1.2-0.9,2.6-0.9
			c1.1,0,1.8,0.3,2.3,0.8c0.8,0.9,1.1,2.8,1.1,5.3c0,2.7-0.4,4.7-1.2,5.7c-0.5,0.6-1.2,1-2.5,1c-1.1,0-1.9-0.3-2.4-0.8
			c-0.7-0.7-1.1-2.7-1.1-5.4C196.4,28.1,196.7,25.9,197.6,25z"/>
		<rect x="191.4" y="38.2" transform="matrix(0.9161 -0.401 0.401 0.9161 1.575 84.3588)" class="st3" width="21.9" height="0.4"/>
	</g>
</g>
</svg>
