<?xml version="1.0" encoding="utf-8"?>
<!-- Generator: Adobe Illustrator 21.0.0, SVG Export Plug-In . SVG Version: 6.00 Build 0)  -->
<svg version="1.1" id="Layer_1" xmlns="http://www.w3.org/2000/svg" xmlns:xlink="http://www.w3.org/1999/xlink" x="0px" y="0px"
	 viewBox="0 0 100 100" style="enable-background:new 0 0 100 100;" xml:space="preserve">
<style type="text/css">
	.st0{opacity:0.2;}
	.st1{fill:none;stroke:#231F20;stroke-width:0.1;stroke-miterlimit:10;}
	.st2{fill:#BE1E2D;}
	.st3{fill:none;stroke:#BE1E2D;stroke-width:2;stroke-miterlimit:10;}
	.st4{fill:none;stroke:#BE1E2D;stroke-width:2;stroke-linecap:round;stroke-miterlimit:10;}
	.st5{fill:none;stroke:#BE1E2D;stroke-width:2;stroke-linejoin:round;stroke-miterlimit:10;}
	.st6{fill:none;stroke:#BE1E2D;stroke-width:2;stroke-linecap:round;stroke-linejoin:round;stroke-miterlimit:10;}
	.st7{fill:#333333;}
	.st8{fill:none;stroke:#333333;stroke-width:2;stroke-linecap:round;stroke-miterlimit:10;}
	.st9{fill:none;stroke:#333333;stroke-width:2;stroke-miterlimit:10;}
	.st10{fill:#FFFFFF;}
	.st11{fill:none;stroke:#231F20;stroke-width:2;stroke-miterlimit:10;}
	.st12{fill:none;stroke:#333333;stroke-width:2;stroke-linecap:round;stroke-linejoin:round;stroke-miterlimit:10;}
	.st13{fill:#FFFFFF;stroke:#333333;stroke-width:2;stroke-linecap:round;stroke-miterlimit:10;}
	.st14{fill:none;stroke:#000000;stroke-width:2;stroke-linecap:round;stroke-miterlimit:10;}
	.st15{fill:none;}
	.st16{fill:#414042;}
</style>
<g>
	<g>
		<g>
			<path class="st16" d="M50.3,76.1H14.6c-0.3,0-0.5-0.2-0.5-0.5V18.9c0-0.3,0.2-0.5,0.5-0.5h35.7c0.3,0,0.5,0.2,0.5,0.5v56.6
				C50.8,75.8,50.5,76.1,50.3,76.1z M15.1,75.1h34.7V19.4H15.1V75.1z"/>
			<path class="st16" d="M86,76.1H50.3c-0.3,0-0.5-0.2-0.5-0.5V18.9c0-0.3,0.2-0.5,0.5-0.5H86c0.3,0,0.5,0.2,0.5,0.5v56.6
				C86.5,75.8,86.2,76.1,86,76.1z M50.8,75.1h34.7V19.4H50.8V75.1z"/>
			<g>
				<polygon class="st16" points="14.6,22.6 12,22.6 12,78.1 46.6,78.1 82.3,78.1 82.3,75.6 14.6,75.6 				"/>
				<path class="st16" d="M82.3,78.6H12c-0.3,0-0.5-0.2-0.5-0.5V22.6c0-0.3,0.2-0.5,0.5-0.5h2.5c0.3,0,0.5,0.2,0.5,0.5v52.4h67.2
					c0.3,0,0.5,0.2,0.5,0.5v2.5C82.8,78.4,82.5,78.6,82.3,78.6z M12.5,77.6h69.2v-1.5H14.6c-0.3,0-0.5-0.2-0.5-0.5V23.1h-1.5V77.6z"
					/>
			</g>
			<g>
				<path class="st16" d="M44.1,31.7h-3.3c-0.3,0-0.5-0.2-0.5-0.5s0.2-0.5,0.5-0.5h3.3c0.3,0,0.5,0.2,0.5,0.5S44.4,31.7,44.1,31.7z"
					/>
				<path class="st16" d="M38.3,31.7h-1.8c-0.3,0-0.5-0.2-0.5-0.5s0.2-0.5,0.5-0.5h1.8c0.3,0,0.5,0.2,0.5,0.5S38.6,31.7,38.3,31.7z"
					/>
				<path class="st16" d="M34,31.7h-0.6c-0.3,0-0.5-0.2-0.5-0.5s0.2-0.5,0.5-0.5H34c0.3,0,0.5,0.2,0.5,0.5S34.3,31.7,34,31.7z"/>
				<path class="st16" d="M30.9,31.7h-6.8c-0.3,0-0.5-0.2-0.5-0.5s0.2-0.5,0.5-0.5h6.8c0.3,0,0.5,0.2,0.5,0.5S31.2,31.7,30.9,31.7z"
					/>
				<path class="st16" d="M21.7,31.7h-0.9c-0.3,0-0.5-0.2-0.5-0.5s0.2-0.5,0.5-0.5h0.9c0.3,0,0.5,0.2,0.5,0.5S21.9,31.7,21.7,31.7z"
					/>
				<path class="st16" d="M26.1,35.4h-5.3c-0.3,0-0.5-0.2-0.5-0.5s0.2-0.5,0.5-0.5h5.3c0.3,0,0.5,0.2,0.5,0.5S26.3,35.4,26.1,35.4z"
					/>
				<path class="st16" d="M30.9,35.4h-2.4c-0.3,0-0.5-0.2-0.5-0.5s0.2-0.5,0.5-0.5h2.4c0.3,0,0.5,0.2,0.5,0.5S31.2,35.4,30.9,35.4z"
					/>
				<path class="st16" d="M33.4,35.4c-0.1,0-0.2,0-0.3-0.1c-0.1-0.1-0.2-0.2-0.2-0.4s0.1-0.3,0.2-0.3c0.2-0.2,0.5-0.2,0.7,0
					c0.1,0.1,0.1,0.2,0.1,0.3s0,0.2-0.1,0.4C33.6,35.4,33.5,35.4,33.4,35.4z"/>
				<path class="st16" d="M40.8,35.4h-4.9c-0.3,0-0.5-0.2-0.5-0.5s0.2-0.5,0.5-0.5h4.9c0.3,0,0.5,0.2,0.5,0.5S41.1,35.4,40.8,35.4z"
					/>
				<path class="st16" d="M44.1,35.4h-0.9c-0.3,0-0.5-0.2-0.5-0.5s0.2-0.5,0.5-0.5h0.9c0.3,0,0.5,0.2,0.5,0.5S44.4,35.4,44.1,35.4z"
					/>
				<path class="st16" d="M21.9,39.1h-1.2c-0.3,0-0.5-0.2-0.5-0.5s0.2-0.5,0.5-0.5h1.2c0.3,0,0.5,0.2,0.5,0.5S22.2,39.1,21.9,39.1z"
					/>
				<path class="st16" d="M29,39.1h-4.7c-0.3,0-0.5-0.2-0.5-0.5s0.2-0.5,0.5-0.5H29c0.3,0,0.5,0.2,0.5,0.5S29.3,39.1,29,39.1z"/>
				<path class="st16" d="M37,39.1h-5.5c-0.3,0-0.5-0.2-0.5-0.5s0.2-0.5,0.5-0.5H37c0.3,0,0.5,0.2,0.5,0.5S37.3,39.1,37,39.1z"/>
				<path class="st16" d="M39.5,39.1c-0.1,0-0.3,0-0.4-0.2C39,38.9,39,38.8,39,38.6s0.1-0.3,0.2-0.4c0.1-0.2,0.5-0.2,0.7,0
					c0.1,0.1,0.2,0.2,0.2,0.4s-0.1,0.2-0.2,0.3C39.7,39.1,39.6,39.1,39.5,39.1z"/>
				<path class="st16" d="M44.1,39.1h-2.2c-0.3,0-0.5-0.2-0.5-0.5s0.2-0.5,0.5-0.5h2.2c0.3,0,0.5,0.2,0.5,0.5S44.4,39.1,44.1,39.1z"
					/>
				<path class="st16" d="M24.9,42.8h-4.2c-0.3,0-0.5-0.2-0.5-0.5s0.2-0.5,0.5-0.5h4.2c0.3,0,0.5,0.2,0.5,0.5S25.2,42.8,24.9,42.8z"
					/>
				<path class="st16" d="M28,42.8h-0.7c-0.3,0-0.5-0.2-0.5-0.5s0.2-0.5,0.5-0.5H28c0.3,0,0.5,0.2,0.5,0.5S28.3,42.8,28,42.8z"/>
				<path class="st16" d="M34.9,42.8h-4.4c-0.3,0-0.5-0.2-0.5-0.5s0.2-0.5,0.5-0.5h4.4c0.3,0,0.5,0.2,0.5,0.5S35.2,42.8,34.9,42.8z"
					/>
				<path class="st16" d="M41.7,42.8h-4.3c-0.3,0-0.5-0.2-0.5-0.5s0.2-0.5,0.5-0.5h4.3c0.3,0,0.5,0.2,0.5,0.5S41.9,42.8,41.7,42.8z"
					/>
				<path class="st16" d="M44.1,42.8c-0.1,0-0.3,0-0.4-0.1c-0.1-0.1-0.1-0.2-0.1-0.4c0-0.1,0-0.3,0.1-0.3c0.2-0.2,0.5-0.2,0.7,0
					c0.1,0.1,0.2,0.2,0.2,0.3c0,0.1-0.1,0.3-0.1,0.4C44.4,42.8,44.2,42.8,44.1,42.8z"/>
			</g>
			<g>
				<path class="st16" d="M24.1,46.5h-3.3c-0.3,0-0.5-0.2-0.5-0.5s0.2-0.5,0.5-0.5h3.3c0.3,0,0.5,0.2,0.5,0.5S24.3,46.5,24.1,46.5z"
					/>
				<path class="st16" d="M28.4,46.5h-1.8c-0.3,0-0.5-0.2-0.5-0.5s0.2-0.5,0.5-0.5h1.8c0.3,0,0.5,0.2,0.5,0.5S28.7,46.5,28.4,46.5z"
					/>
				<path class="st16" d="M31.5,46.5h-0.6c-0.3,0-0.5-0.2-0.5-0.5s0.2-0.5,0.5-0.5h0.6c0.3,0,0.5,0.2,0.5,0.5S31.7,46.5,31.5,46.5z"
					/>
				<path class="st16" d="M40.7,46.5h-6.8c-0.3,0-0.5-0.2-0.5-0.5s0.2-0.5,0.5-0.5h6.8c0.3,0,0.5,0.2,0.5,0.5S41,46.5,40.7,46.5z"/>
				<path class="st16" d="M44.1,46.5h-0.9c-0.3,0-0.5-0.2-0.5-0.5s0.2-0.5,0.5-0.5h0.9c0.3,0,0.5,0.2,0.5,0.5S44.4,46.5,44.1,46.5z"
					/>
				<path class="st16" d="M44.1,50.2h-5.3c-0.3,0-0.5-0.2-0.5-0.5s0.2-0.5,0.5-0.5h5.3c0.3,0,0.5,0.2,0.5,0.5S44.4,50.2,44.1,50.2z"
					/>
				<path class="st16" d="M36.3,50.2h-2.4c-0.3,0-0.5-0.2-0.5-0.5s0.2-0.5,0.5-0.5h2.4c0.3,0,0.5,0.2,0.5,0.5S36.6,50.2,36.3,50.2z"
					/>
				<path class="st16" d="M31.5,50.2c-0.1,0-0.3-0.1-0.4-0.2C31,50,31,49.8,31,49.7s0-0.3,0.1-0.4c0.2-0.2,0.5-0.2,0.7,0
					c0.1,0.1,0.2,0.2,0.2,0.4s-0.1,0.3-0.2,0.3C31.7,50.2,31.6,50.2,31.5,50.2z"/>
				<path class="st16" d="M29,50.2h-4.9c-0.3,0-0.5-0.2-0.5-0.5s0.2-0.5,0.5-0.5H29c0.3,0,0.5,0.2,0.5,0.5S29.3,50.2,29,50.2z"/>
				<path class="st16" d="M21.6,50.2h-0.9c-0.3,0-0.5-0.2-0.5-0.5s0.2-0.5,0.5-0.5h0.9c0.3,0,0.5,0.2,0.5,0.5S21.9,50.2,21.6,50.2z"
					/>
				<path class="st16" d="M44.1,65h-3.3c-0.3,0-0.5-0.2-0.5-0.5s0.2-0.5,0.5-0.5h3.3c0.3,0,0.5,0.2,0.5,0.5S44.4,65,44.1,65z"/>
				<path class="st16" d="M38.3,65h-1.8c-0.3,0-0.5-0.2-0.5-0.5s0.2-0.5,0.5-0.5h1.8c0.3,0,0.5,0.2,0.5,0.5S38.6,65,38.3,65z"/>
				<path class="st16" d="M34,65h-0.6c-0.3,0-0.5-0.2-0.5-0.5s0.2-0.5,0.5-0.5H34c0.3,0,0.5,0.2,0.5,0.5S34.3,65,34,65z"/>
				<path class="st16" d="M30.9,65h-6.8c-0.3,0-0.5-0.2-0.5-0.5s0.2-0.5,0.5-0.5h6.8c0.3,0,0.5,0.2,0.5,0.5S31.2,65,30.9,65z"/>
				<path class="st16" d="M21.7,65h-0.9c-0.3,0-0.5-0.2-0.5-0.5s0.2-0.5,0.5-0.5h0.9c0.3,0,0.5,0.2,0.5,0.5S21.9,65,21.7,65z"/>
				<path class="st16" d="M26.1,61.3h-5.3c-0.3,0-0.5-0.2-0.5-0.5s0.2-0.5,0.5-0.5h5.3c0.3,0,0.5,0.2,0.5,0.5S26.3,61.3,26.1,61.3z"
					/>
				<path class="st16" d="M30.9,61.3h-2.4c-0.3,0-0.5-0.2-0.5-0.5s0.2-0.5,0.5-0.5h2.4c0.3,0,0.5,0.2,0.5,0.5S31.2,61.3,30.9,61.3z"
					/>
				<path class="st16" d="M33.4,61.3c-0.1,0-0.2,0-0.3-0.2c-0.1-0.1-0.2-0.2-0.2-0.3c0-0.1,0.1-0.3,0.1-0.4c0.2-0.2,0.5-0.2,0.7,0
					c0.1,0.1,0.1,0.2,0.1,0.4c0,0.1,0,0.3-0.1,0.3C33.7,61.2,33.5,61.3,33.4,61.3z"/>
				<path class="st16" d="M40.8,61.3h-4.9c-0.3,0-0.5-0.2-0.5-0.5s0.2-0.5,0.5-0.5h4.9c0.3,0,0.5,0.2,0.5,0.5S41.1,61.3,40.8,61.3z"
					/>
				<path class="st16" d="M44.1,61.3h-0.9c-0.3,0-0.5-0.2-0.5-0.5s0.2-0.5,0.5-0.5h0.9c0.3,0,0.5,0.2,0.5,0.5S44.4,61.3,44.1,61.3z"
					/>
				<path class="st16" d="M44.1,53.9h-1.2c-0.3,0-0.5-0.2-0.5-0.5s0.2-0.5,0.5-0.5h1.2c0.3,0,0.5,0.2,0.5,0.5S44.4,53.9,44.1,53.9z"
					/>
				<path class="st16" d="M40.5,53.9h-4.7c-0.3,0-0.5-0.2-0.5-0.5s0.2-0.5,0.5-0.5h4.7c0.3,0,0.5,0.2,0.5,0.5S40.7,53.9,40.5,53.9z"
					/>
				<path class="st16" d="M33.3,53.9h-5.5c-0.3,0-0.5-0.2-0.5-0.5s0.2-0.5,0.5-0.5h5.5c0.3,0,0.5,0.2,0.5,0.5S33.6,53.9,33.3,53.9z"
					/>
				<path class="st16" d="M25.4,53.9c-0.1,0-0.3,0-0.3-0.1c-0.1-0.1-0.2-0.2-0.2-0.4s0-0.3,0.1-0.4c0.2-0.2,0.5-0.2,0.7,0
					c0.1,0.1,0.1,0.2,0.1,0.3c0,0.1-0.1,0.3-0.1,0.4C25.6,53.8,25.5,53.9,25.4,53.9z"/>
				<path class="st16" d="M22.9,53.9h-2.2c-0.3,0-0.5-0.2-0.5-0.5s0.2-0.5,0.5-0.5h2.2c0.3,0,0.5,0.2,0.5,0.5S23.2,53.9,22.9,53.9z"
					/>
				<path class="st16" d="M44.1,57.6H40c-0.3,0-0.5-0.2-0.5-0.5s0.2-0.5,0.5-0.5h4.2c0.3,0,0.5,0.2,0.5,0.5S44.4,57.6,44.1,57.6z"/>
				<path class="st16" d="M37.5,57.6h-0.7c-0.3,0-0.5-0.2-0.5-0.5s0.2-0.5,0.5-0.5h0.7c0.3,0,0.5,0.2,0.5,0.5S37.8,57.6,37.5,57.6z"
					/>
				<path class="st16" d="M34.3,57.6h-4.4c-0.3,0-0.5-0.2-0.5-0.5s0.2-0.5,0.5-0.5h4.4c0.3,0,0.5,0.2,0.5,0.5S34.6,57.6,34.3,57.6z"
					/>
				<path class="st16" d="M27.5,57.6h-4.3c-0.3,0-0.5-0.2-0.5-0.5s0.2-0.5,0.5-0.5h4.3c0.3,0,0.5,0.2,0.5,0.5S27.7,57.6,27.5,57.6z"
					/>
				<path class="st16" d="M20.7,57.6c-0.1,0-0.2,0-0.3-0.1c-0.1-0.1-0.2-0.2-0.2-0.4s0.1-0.3,0.2-0.3c0.2-0.2,0.5-0.2,0.7,0
					c0.1,0.1,0.1,0.2,0.1,0.3s0,0.2-0.1,0.3C21,57.5,20.9,57.6,20.7,57.6z"/>
			</g>
			<g>
				<path class="st16" d="M61.8,61.3c-0.1,0-0.2,0-0.3-0.1L57.9,59c-0.1-0.1-0.2-0.2-0.2-0.3c0-0.1,0-0.3,0.1-0.4l14.8-23.8
					c0.1-0.2,0.5-0.3,0.7-0.2l3.6,2.2c0.1,0.1,0.2,0.2,0.2,0.3c0,0.1,0,0.3-0.1,0.4L62.2,61C62.1,61.2,61.9,61.3,61.8,61.3z
					 M58.9,58.4l2.7,1.7l14.3-22.9l-2.7-1.7L58.9,58.4z"/>
				
					<rect x="52.9" y="46.8" transform="matrix(0.5299 -0.848 0.848 0.5299 -9.5459 78.5535)" class="st16" width="26.4" height="2.1"/>
				<path class="st16" d="M56.5,65.6c-0.1,0-0.2,0-0.3-0.1c-0.2-0.1-0.3-0.3-0.2-0.5l1.7-6.6c0-0.2,0.1-0.3,0.3-0.3
					c0.1-0.1,0.3,0,0.5,0l3.6,2.2c0.1,0.1,0.2,0.2,0.2,0.4c0,0.2-0.1,0.3-0.2,0.4l-5.2,4.4C56.8,65.6,56.7,65.6,56.5,65.6z
					 M58.5,59.3l-1.1,4.4l3.5-2.9L58.5,59.3z"/>
				<polygon class="st16" points="56.5,65.1 57.4,61.8 59.1,63 				"/>
				<path class="st16" d="M76.7,37.3c-0.1,0-0.2,0-0.3-0.1c-0.2-0.1-0.3-0.5-0.2-0.7l2.6-4.2c0.2-0.4,0.3-0.8,0.2-1.2
					c-0.1-0.4-0.3-0.8-0.7-1s-0.8-0.3-1.2-0.2c-0.4,0.1-0.8,0.3-1,0.7l-2.6,4.2c-0.1,0.2-0.5,0.3-0.7,0.2c-0.2-0.1-0.3-0.5-0.2-0.7
					l2.6-4.2c0.4-0.6,0.9-1,1.6-1.2c0.7-0.2,1.4,0,2,0.3c0.6,0.4,1,0.9,1.2,1.6s0,1.4-0.3,2l-2.6,4.2C77.1,37.2,76.9,37.3,76.7,37.3
					z"/>
				<path class="st16" d="M78.8,35c-0.1,0-0.2,0-0.3-0.1L74,32.2c-0.2-0.1-0.3-0.5-0.2-0.7c0.1-0.2,0.5-0.3,0.7-0.2l4.5,2.8
					c0.2,0.1,0.3,0.5,0.2,0.7C79.1,35,78.9,35,78.8,35z"/>
				<path class="st16" d="M76.9,30.6c-0.5-0.3-1.1-0.2-1.4,0.3l-0.7,1.2l1.7,1.1l0.7-1.2C77.6,31.5,77.4,30.9,76.9,30.6z"/>
				<rect x="73.5" y="33.6" transform="matrix(0.5299 -0.848 0.848 0.5299 5.6213 79.368)" class="st16" width="1.7" height="2.1"/>
			</g>
			<g>
				<polygon class="st10" points="78.6,88.9 74.1,85.4 69.7,88.9 69.7,75.6 78.6,75.6 				"/>
				<path class="st16" d="M78.6,89.4c-0.1,0-0.2,0-0.3-0.1L74.1,86L70,89.3c-0.2,0.1-0.4,0.1-0.5,0.1c-0.2-0.1-0.3-0.3-0.3-0.5V75.6
					c0-0.3,0.2-0.5,0.5-0.5h8.9c0.3,0,0.5,0.2,0.5,0.5v13.4c0,0.2-0.1,0.4-0.3,0.5C78.7,89.4,78.7,89.4,78.6,89.4z M74.1,84.9
					c0.1,0,0.2,0,0.3,0.1l3.6,2.9V76.1h-7.9v11.8l3.6-2.9C73.9,84.9,74,84.9,74.1,84.9z"/>
			</g>
		</g>
		<path class="st16" d="M86,68c-0.1,0-0.1,0-0.2-0.1c-0.2-0.1-0.4-0.4-0.2-0.7c2.6-5.4,4-11.2,4-17.3c0-4.5-0.7-8.9-2.2-13
			c-0.1-0.3,0-0.5,0.3-0.6c0.3-0.1,0.5,0,0.6,0.3c1.5,4.3,2.3,8.8,2.3,13.4c0,6.2-1.4,12.2-4.1,17.7C86.3,67.9,86.2,68,86,68z"/>
		<path class="st16" d="M86,33c-0.2,0-0.4-0.1-0.4-0.3c-2.1-4.2-4.8-8-8.2-11.2c-0.2-0.2-0.2-0.5,0-0.7c0.2-0.2,0.5-0.2,0.7,0
			c3.5,3.3,6.3,7.2,8.4,11.5c0.1,0.2,0,0.5-0.2,0.7C86.1,33,86,33,86,33z"/>
		<path class="st16" d="M75.2,19.4c-0.1,0-0.2,0-0.3-0.1c-7-5.7-15.8-8.8-24.9-8.8c-9,0-17.8,3.1-24.8,8.8c-0.2,0.2-0.5,0.1-0.7-0.1
			c-0.2-0.2-0.1-0.5,0.1-0.7c7.2-5.8,16.2-9,25.5-9c9.3,0,18.3,3.2,25.5,9c0.2,0.2,0.2,0.5,0.1,0.7C75.5,19.4,75.3,19.4,75.2,19.4z"
			/>
		<path class="st16" d="M13.2,66.2c-0.2,0-0.4-0.1-0.5-0.3c-2.2-5-3.2-10.4-3.2-15.9c0-5.2,1-10.3,2.9-15.1c0.1-0.3,0.4-0.4,0.6-0.3
			c0.3,0.1,0.4,0.4,0.3,0.6c-1.9,4.7-2.8,9.6-2.8,14.7c0,5.4,1.1,10.6,3.2,15.5c0.1,0.3,0,0.5-0.3,0.7
			C13.3,66.2,13.3,66.2,13.2,66.2z"/>
		<path class="st16" d="M50,90.5c-11.2,0-22-4.7-29.6-12.9c-0.2-0.2-0.2-0.5,0-0.7c0.2-0.2,0.5-0.2,0.7,0c7.4,8,18,12.6,28.9,12.6
			c6.8,0,13.5-1.8,19.4-5.1c0.2-0.1,0.5-0.1,0.7,0.2c0.1,0.2,0.1,0.5-0.2,0.7C63.9,88.7,57,90.5,50,90.5z"/>
	</g>
</g>
</svg>
